HIERARCHY
ROOT Hips
{
	OFFSET 52.609798 -4.581564 86.821404
	CHANNELS 6 Xposition Yposition Zposition Xrotation Yrotation Zrotation
	JOINT spine
	{
		OFFSET 0.000000 -0.393701 6.846367
		CHANNELS 3 Xrotation Yrotation Zrotation
		JOINT spine1
		{
			OFFSET 0.000000 -0.000001 9.496208
			CHANNELS 3 Xrotation Yrotation Zrotation
			JOINT spine2
			{
				OFFSET 0.000000 -0.000001 9.099091
				CHANNELS 3 Xrotation Yrotation Zrotation
				JOINT Neck
				{
					OFFSET 0.000000 -1.113784 23.361198
					CHANNELS 3 Xrotation Yrotation Zrotation
					JOINT Head
					{
						OFFSET 0.000000 -0.000001 7.058014
						CHANNELS 3 Xrotation Yrotation Zrotation
						End Site
						{
							OFFSET 0.000000 5.634187 17.084396
						}
					}
				}
				JOINT RightShoulder
				{
					OFFSET -3.831360 0.533489 9.826309
					CHANNELS 3 Xrotation Yrotation Zrotation
					JOINT RightArm
					{
						OFFSET 0.000000 -0.000002 12.888100
						CHANNELS 3 Xrotation Yrotation Zrotation
						JOINT RightArmRoll
						{
							OFFSET 0.000000 -0.000001 6.506165
							CHANNELS 3 Xrotation Yrotation Zrotation
							JOINT RightForeArm
							{
								OFFSET 0.000000 -0.000003 18.950104
								CHANNELS 3 Xrotation Yrotation Zrotation
								JOINT RightForeArmRoll
								{
									OFFSET 0.000000 -0.000001 7.300919
									CHANNELS 3 Xrotation Yrotation Zrotation
									JOINT RightHand
									{
										OFFSET 0.000000 -0.000002 14.651398
										CHANNELS 3 Xrotation Yrotation Zrotation
										End Site
										{
											OFFSET 0.000000 0.000000 0.100006
										}
									}
								}
							}
						}
					}
				}
				JOINT LeftShoulder
				{
					OFFSET 3.831360 0.533489 9.826309
					CHANNELS 3 Xrotation Yrotation Zrotation
					JOINT LeftArm
					{
						OFFSET 0.000000 -0.000002 12.888100
						CHANNELS 3 Xrotation Yrotation Zrotation
						JOINT LeftArmRoll
						{
							OFFSET 0.000000 -0.000001 6.506165
							CHANNELS 3 Xrotation Yrotation Zrotation
							JOINT LeftForeArm
							{
								OFFSET 0.000000 -0.000003 18.950104
								CHANNELS 3 Xrotation Yrotation Zrotation
								JOINT LeftForeArmRoll
								{
									OFFSET 0.000000 -0.000001 7.300934
									CHANNELS 3 Xrotation Yrotation Zrotation
									JOINT LeftHand
									{
										OFFSET 0.000000 -0.000002 14.651398
										CHANNELS 3 Xrotation Yrotation Zrotation
										End Site
										{
											OFFSET 0.000000 0.000000 0.100006
										}
									}
								}
							}
						}
					}
				}
			}
		}
	}
	JOINT RightUpLeg
	{
		OFFSET -6.068371 0.933477 -1.112778
		CHANNELS 3 Xrotation Yrotation Zrotation
		JOINT RightUpLegRoll
		{
			OFFSET 0.000000 -0.000003 17.179604
			CHANNELS 3 Xrotation Yrotation Zrotation
			JOINT RightLeg
			{
				OFFSET 0.000000 0.000003 -21.274300
				CHANNELS 3 Xrotation Yrotation Zrotation
				JOINT RightLegRoll
				{
					OFFSET 0.000000 -0.000003 21.343903
					CHANNELS 3 Xrotation Yrotation Zrotation
					JOINT RightFoot
					{
						OFFSET 0.000000 -0.000003 17.765198
						CHANNELS 3 Xrotation Yrotation Zrotation
						JOINT RightToeBase
						{
							OFFSET 0.000000 -0.000003 14.850792
							CHANNELS 3 Xrotation Yrotation Zrotation
							End Site
							{
								OFFSET 0.006294 0.829004 7.192139
							}
						}
					}
				}
			}
		}
	}
	JOINT LeftUpLeg
	{
		OFFSET 6.068371 0.933477 -1.112778
		CHANNELS 3 Xrotation Yrotation Zrotation
		JOINT LeftUpLegRoll
		{
			OFFSET 0.000000 -0.000003 17.179703
			CHANNELS 3 Xrotation Yrotation Zrotation
			JOINT LeftLeg
			{
				OFFSET 0.000000 -0.000004 21.274200
				CHANNELS 3 Xrotation Yrotation Zrotation
				JOINT LeftLegRoll
				{
					OFFSET 0.000000 -0.000004 21.541206
					CHANNELS 3 Xrotation Yrotation Zrotation
					JOINT LeftFoot
					{
						OFFSET 0.000000 -0.000003 17.567902
						CHANNELS 3 Xrotation Yrotation Zrotation
						JOINT LeftToeBase
						{
							OFFSET 0.000000 -0.000002 14.850800
							CHANNELS 3 Xrotation Yrotation Zrotation
							End Site
							{
								OFFSET -0.028210 0.829004 7.192123
							}
						}
					}
				}
			}
		}
	}
}
MOTION
Frames: 6
Frame Time: 0.041667
50.714905 -2.732935 86.737801 -1.992929 -3.085788 9.258064 0.530977 -2.354980 0.685845 5.097473 -4.700919 1.418188 6.744647 -4.683596 1.474509 31.291600 38.898672 -11.323548 19.101621 -30.033793 -0.021850 -0.408942 -19.177353 6.036846 -87.050201 -158.763198 -67.481962 0.000002 -0.000001 -0.000007 26.122583 -8.461987 0.852715 -0.000001 0.000009 -3.000391 -5.000183 -7.999163 0.000148 -33.489585 65.802971 38.930326 -117.062435 108.119395 168.962611 -0.000002 0.000009 0.000006 103.386306 -19.474490 28.888927 -0.000004 -0.000006 3.000341 -5.000193 7.999163 -0.000146 -14.079608 -176.344884 -0.318710 -179.999991 0.000005 -1.119995 154.680439 -3.958839 -1.327837 -0.000001 0.000002 0.646019 73.521433 7.580676 -0.235330 25.456950 -7.355613 0.000000 -11.908437 -178.572373 3.917858 -0.000004 -0.000004 -1.054450 -20.550069 0.143038 0.901230 -0.000004 -0.000003 -0.518848 70.432508 -5.834833 -4.869791 25.456854 7.355619 0.000012 
50.729599 -2.753044 86.738907 -2.028451 -3.068969 9.167645 0.521984 -2.348183 0.692393 5.079630 -4.686964 1.430849 6.726781 -4.669496 1.487002 31.238932 38.700784 -11.263653 19.017675 -29.840198 -0.076271 -0.459863 -19.483825 5.891115 -86.809894 -158.511000 -67.796109 0.000001 0.000000 -0.000006 26.590850 -8.549311 0.923103 -0.000002 0.000012 -3.000390 -5.000185 -7.999164 0.000149 -33.156938 65.692698 38.562708 -115.685947 108.523182 167.599373 -0.000001 0.000011 0.000006 103.070287 -19.377047 28.509194 -0.000005 -0.000007 3.000338 -5.000195 7.999162 -0.000146 -14.049229 -176.364773 -0.329468 -179.999991 0.000005 -1.121007 154.687119 -3.950910 -1.326529 -0.000001 0.000002 0.645781 73.516290 7.577817 -0.225998 25.456947 -7.355614 0.000000 -11.878821 -178.592781 3.889670 -0.000004 -0.000004 -1.054571 -20.595974 0.152462 0.902616 -0.000005 -0.000003 -0.519869 70.477020 -5.840208 -4.855482 25.456853 7.355619 0.000011 
50.741299 -2.757437 86.737389 -2.065615 -3.055208 9.077006 0.513637 -2.340537 0.698868 5.063042 -4.671234 1.443385 6.710173 -4.653616 1.499344 31.184250 38.500919 -11.204981 18.933604 -29.647795 -0.131932 -0.512999 -19.789674 5.742850 -86.569055 -158.255032 -68.115721 0.000000 -0.000002 -0.000003 27.059545 -8.631810 0.994342 -0.000004 0.000009 -3.000392 -5.000185 -7.999160 0.000150 -32.821306 65.578388 38.191570 -114.348978 108.935076 166.276174 -0.000002 0.000010 0.000004 102.751945 -19.277582 28.127335 -0.000006 -0.000008 3.000336 -5.000195 7.999163 -0.000145 -14.017689 -176.381740 -0.338857 -179.999991 0.000005 -1.121006 154.690985 -3.942902 -1.325434 -0.000000 0.000002 0.645578 73.512623 7.574810 -0.216386 25.456948 -7.355613 0.000000 -11.846519 -178.610225 3.861964 -0.000005 -0.000004 -1.054760 -20.641991 0.162706 0.903953 -0.000004 -0.000003 -0.520908 70.524169 -5.845881 -4.840383 25.456849 7.355620 0.000012 
50.754196 -2.765315 86.736198 -2.103809 -3.043771 8.986238 0.505760 -2.332189 0.705211 5.047396 -4.654044 1.455676 6.694506 -4.636272 1.511422 31.127720 38.299606 -11.147053 18.850052 -29.456301 -0.188034 -0.568180 -20.094895 5.592289 -86.327560 -157.995526 -68.439964 0.000001 0.000000 -0.000005 27.528995 -8.709056 1.066486 -0.000001 0.000009 -3.000381 -5.000189 -7.999162 0.000151 -32.483615 65.460724 37.817938 -113.050347 109.354607 164.989585 -0.000003 0.000011 0.000004 102.431582 -19.174749 27.744380 -0.000005 -0.000006 3.000330 -5.000195 7.999162 -0.000146 -13.985605 -176.395796 -0.347289 -179.999991 0.000005 -1.122003 154.692774 -3.933910 -1.325049 -0.000001 0.000002 0.645399 73.510075 7.571614 -0.206381 25.456955 -7.355614 0.000000 -11.812127 -178.626686 3.835029 -0.000004 -0.000004 -1.055010 -20.687899 0.173529 0.905256 -0.000004 -0.000003 -0.521968 70.573654 -5.851656 -4.824873 25.456856 7.355619 0.000012 
50.766998 -2.774778 86.736595 -2.142432 -3.033982 8.895412 0.498190 -2.323302 0.711370 5.032334 -4.635731 1.467587 6.679430 -4.617821 1.523118 31.069342 38.097351 -11.089300 18.767174 -29.265390 -0.244005 -0.625249 -20.399688 5.439718 -86.085239 -157.732536 -68.768175 0.000003 -0.000002 -0.000004 27.999561 -8.780643 1.139594 -0.000003 0.000009 -3.000381 -5.000187 -7.999163 0.000150 -32.144827 65.340069 37.442776 -111.789037 109.781760 163.736300 -0.000002 0.000013 0.000005 102.107886 -19.068370 27.356468 -0.000005 -0.000006 3.000330 -5.000193 7.999161 -0.000147 -13.953434 -176.408883 -0.354703 -179.999991 0.000005 -1.123001 154.693048 -3.925772 -1.324183 -0.000003 0.000002 0.645231 73.508463 7.568278 -0.196258 25.456952 -7.355613 0.000000 -11.776651 -178.640210 3.808304 -0.000004 -0.000005 -1.055300 -20.734013 0.184691 0.906547 -0.000004 -0.000003 -0.523047 70.624982 -5.857535 -4.809181 25.456856 7.355619 0.000012 
50.764400 -2.805026 86.738403 -2.180860 -3.025112 8.804600 0.490762 -2.314036 0.717284 5.017550 -4.616618 1.479011 6.664611 -4.598580 1.534307 31.009001 37.894453 -11.030975 18.685379 -29.074824 -0.299163 -0.684032 -20.703951 5.285376 -85.842009 -157.466337 -69.099603 0.000001 -0.000001 -0.000005 28.471773 -8.846084 1.213712 -0.000000 0.000008 -3.000383 -5.000188 -7.999159 0.000144 -31.805957 65.216852 37.067256 -110.564363 110.216345 162.513204 0.000001 0.000010 0.000007 101.781560 -18.956784 26.965761 -0.000004 -0.000006 3.000329 -5.000194 7.999162 -0.000143 -13.921592 -176.420043 -0.361744 -179.999991 0.000005 -1.123001 154.692447 -3.916703 -1.323964 -0.000001 0.000002 0.645066 73.507158 7.564872 -0.185765 25.456953 -7.355613 0.000000 -11.740775 -178.652764 3.782070 -0.000004 -0.000004 -1.055610 -20.780029 0.195950 0.907839 -0.000004 -0.000003 -0.524153 70.677773 -5.863357 -4.793494 25.456858 7.355619 0.000012 
